<?xml version="1.0" standalone="no"?><!DOCTYPE svg PUBLIC "-//W3C//DTD SVG 1.1//EN" "http://www.w3.org/Graphics/SVG/1.1/DTD/svg11.dtd"><svg t="1641905169221" class="icon" viewBox="0 0 1024 1024" version="1.1" xmlns="http://www.w3.org/2000/svg" p-id="3278" width="128" height="128" xmlns:xlink="http://www.w3.org/1999/xlink"><defs><style type="text/css"></style></defs><path d="M84.69 84.69m213.65 0l427.32 0q213.65 0 213.65 213.65l0 427.32q0 213.65-213.65 213.65l-427.32 0q-213.65 0-213.65-213.65l0-427.32q0-213.65 213.65-213.65Z" fill="#F0A227" p-id="3279"></path><path d="M786.6 359a159.91 159.91 0 0 0-16.37-5.95 40.75 40.75 0 0 0-35 5.13L695 384.4s19.38-28.37 20.53-30.24 2.79-4.78-2.07-5.88c-85.4-1.78-146.77 19.33-179.87 32.58-33 9.84-38.32 38.81-38.32 38.81l-11.54 50.61s-5-41.92-6.31-50.38c-2-8.2-8.68-2.31-8.68-2.31s-22.87 17.12-33.85 28.83-9.7 22.9-9.7 22.9l-1.41 70.61c-8-22.75-16.59-47.24-18.49-52.18-1.85-3.55-6-7.28-8.68-2.3-39.11 55.26-54.31 89.66-53.08 131.88-73.24 93-95 202.45-95 202.45 1.05 5.93 6.24 9.32 11.49-2.88C308.67 675.2 502 518 539.18 488.74c-84.35 66.72-148 168.13-148 168.13 64.21-4.12 112.82-28.68 210.11-109.57C728.24 445.14 786.2 372.83 789 367s-2.4-8-2.4-8zM542.89 485.83l2.49-1.92c-0.83 0.63-1.66 1.28-2.49 1.92z" fill="#F0F0F0" p-id="3280"></path></svg>