<?xml version="1.0" standalone="no"?><!DOCTYPE svg PUBLIC "-//W3C//DTD SVG 1.1//EN" "http://www.w3.org/Graphics/SVG/1.1/DTD/svg11.dtd"><svg t="1642430011603" class="icon" viewBox="0 0 1024 1024" version="1.1" xmlns="http://www.w3.org/2000/svg" p-id="7511" xmlns:xlink="http://www.w3.org/1999/xlink" width="200" height="200"><defs><style type="text/css"></style></defs><path d="M379.7 401.3c-16.3 16.3-16.3 42.9 0 59.2l102 102c16.3 16.3 42.9 16.3 59.2 0l102-102c16.3-16.3 16.3-42.9 0-59.2-16.3-16.3-42.9-16.3-59.2 0l-31.6 31.6v-268c0-22.6-18.3-40.8-40.8-40.8-22.6 0-40.8 18.3-40.8 40.8v268l-31.6-31.6c-16.3-16.3-42.9-16.3-59.2 0z" p-id="7512"></path><path d="M958.9 587.2c0-6.1-1.1-12.3-3.3-18.3L851 285.7c-7.4-20.2-28.4-33.7-52.1-33.7H598.8v80h183.7l82.9 224.5H707.8c-15.5 0-28 12.5-28 28V635h-337v-50.4c0-15.5-12.5-28-28-28H157.4l83-224.6h183.4v-80H223.9c-23.7 0-44.6 13.5-52.1 33.7L67.3 568.9c-1.9 5.1-2.9 10.3-3.2 15.4-0.3 1-0.4 2-0.4 3.1V856c0 25.3 20.8 46 46.3 46h802.8c25.4 0 46.3-20.7 46.3-46V587.3c-0.2 0-0.2-0.1-0.2-0.1z" p-id="7513"></path></svg>