<?xml version="1.0" standalone="no"?><!DOCTYPE svg PUBLIC "-//W3C//DTD SVG 1.1//EN" "http://www.w3.org/Graphics/SVG/1.1/DTD/svg11.dtd"><svg t="1642430199594" class="icon" viewBox="0 0 1024 1024" version="1.1" xmlns="http://www.w3.org/2000/svg" p-id="8338" xmlns:xlink="http://www.w3.org/1999/xlink" width="200" height="200"><defs><style type="text/css"></style></defs><path d="M146.012 911.472c-41.495 0-74.012-32.499-74.012-73.993V567.582c0-16.477 20.766-58.282 60.983-64.45l0.62-316.611c0-40.108 33.831-73.993 73.866-73.993h609.026c40.728 0 73.902 33.192 73.902 73.993v315.881c37.845 6.24 61.603 46.148 61.603 65.18V837.48c0 35.582-28.32 73.993-74.012 73.993H146.012z m5.729-75.818l717.926 0.748 0.73-46.056V577.855l-164.117-0.748-0.73 46.056c0 35.893-31.933 65.107-71.201 65.107H388.337c-39.268 0-71.201-29.214-71.201-65.107v-45.308l-165.285-0.748-0.11 258.547z m62.151-334.365l64.377 0.602c16.313 0 32.991 0.036 46.458 0.146 50.217 0.42 73.61 44.651 73.61 74.413v36.44l226.159 0.748 0.73-37.188c0-30.418 26.787-74.413 75.143-74.413h108.536l0.328-314.549-594.61-0.748-0.731 314.549z" p-id="8339"></path></svg>