<?xml version="1.0" standalone="no"?><!DOCTYPE svg PUBLIC "-//W3C//DTD SVG 1.1//EN" "http://www.w3.org/Graphics/SVG/1.1/DTD/svg11.dtd"><svg t="1642174985288" class="icon" viewBox="0 0 1030 1024" version="1.1" xmlns="http://www.w3.org/2000/svg" p-id="2881" xmlns:xlink="http://www.w3.org/1999/xlink" width="201.171875" height="200"><defs><style type="text/css"></style></defs><path d="M66.133333 85.333333c-33.706667 0-62.72 24.789333-65.834666 58.112l-0.298667 5.973334v642.773333c0 34.261333 27.136 61.013333 60.245333 63.829333l5.888 0.256h51.2v103.637334c0 34.261333 27.136 60.970667 60.245334 63.829333l5.888 0.256c12.885333 0 25.514667-3.626667 36.352-10.538667l5.205333-3.669333 196.352-153.728 1.706667-0.085333a42.666667 42.666667 0 0 0 37.418666-37.376l0.298667-4.992a42.666667 42.666667 0 0 0-37.674667-42.368l-4.992-0.298667h-11.733333a42.666667 42.666667 0 0 0-21.589333 5.888l-4.693334 3.2-177.450666 138.88v-105.301333a42.666667 42.666667 0 0 0-37.674667-42.368l-4.992-0.298667H85.333333V170.666667h853.333334v385.962666a42.666667 42.666667 0 0 0 37.674666 42.368l4.992 0.298667a42.666667 42.666667 0 0 0 42.368-37.674667l0.298667-4.992v-407.210666c0-34.261333-27.136-60.970667-60.245333-63.829334l-5.888-0.256h-891.733334z" p-id="2882" fill="#cdcdcd"></path><path d="M256 256m42.666667 0l170.666666 0q42.666667 0 42.666667 42.666667l0 0q0 42.666667-42.666667 42.666666l-170.666666 0q-42.666667 0-42.666667-42.666666l0 0q0-42.666667 42.666667-42.666667Z" p-id="2883" fill="#cdcdcd"></path><path d="M256 426.666667m42.666667 0l256 0q42.666667 0 42.666666 42.666666l0 0q0 42.666667-42.666666 42.666667l-256 0q-42.666667 0-42.666667-42.666667l0 0q0-42.666667 42.666667-42.666666Z" p-id="2884" fill="#cdcdcd"></path><path d="M789.333333 810.666667m-64 0a64 64 0 1 0 128 0 64 64 0 1 0-128 0Z" p-id="2885" fill="#cdcdcd"></path><path d="M910.293333 597.333333h-241.92l-119.978666 213.333334 119.978666 213.333333h241.92l119.978667-213.333333-119.978667-213.333334z m-49.92 85.333334l71.978667 128-72.021333 128H718.293333L646.272 810.666667l71.978667-128h142.122666z" p-id="2886" fill="#cdcdcd"></path></svg>