<?xml version="1.0" standalone="no"?><!DOCTYPE svg PUBLIC "-//W3C//DTD SVG 1.1//EN" "http://www.w3.org/Graphics/SVG/1.1/DTD/svg11.dtd"><svg t="1641905952807" class="icon" viewBox="0 0 1024 1024" version="1.1" xmlns="http://www.w3.org/2000/svg" p-id="3602" xmlns:xlink="http://www.w3.org/1999/xlink" width="128" height="128"><defs><style type="text/css"></style></defs><path d="M225.778 64h572.444C887.57 64 960 136.43 960 225.778v572.444C960 887.57 887.57 960 798.222 960H225.778C136.43 960 64 887.57 64 798.222V225.778C64 136.43 136.43 64 225.778 64z" fill="#FFE97D" p-id="3603"></path><path d="M225.778 88.889c-75.602 0-136.89 61.287-136.89 136.889v572.444c0 75.602 61.288 136.89 136.89 136.89h572.444c75.602 0 136.89-61.288 136.89-136.89V225.778c0-75.602-61.288-136.89-136.89-136.89H225.778z m0-24.889h572.444C887.57 64 960 136.43 960 225.778v572.444C960 887.57 887.57 960 798.222 960H225.778C136.43 960 64 887.57 64 798.222V225.778C64 136.43 136.43 64 225.778 64z" fill="#834038" p-id="3604"></path><path d="M225.778 64h572.444C887.57 64 960 136.43 960 225.778v522.318c0 89.348-72.43 161.778-161.778 161.778H225.778C136.43 909.874 64 837.444 64 748.096V225.778C64 136.43 136.43 64 225.778 64z" fill="#FFE97D" p-id="3605"></path><path d="M225.778 88.889c-75.602 0-136.89 61.287-136.89 136.889v522.318c0 75.602 61.288 136.89 136.89 136.89h572.444c75.602 0 136.89-61.288 136.89-136.89V225.778c0-75.602-61.288-136.89-136.89-136.89H225.778z m0-24.889h572.444C887.57 64 960 136.43 960 225.778v522.318c0 89.348-72.43 161.778-161.778 161.778H225.778C136.43 909.874 64 837.444 64 748.096V225.778C64 136.43 136.43 64 225.778 64z" fill="#834038" p-id="3606"></path><path d="M225.778 64h572.444C887.57 64 960 136.43 960 225.778V697.97c0 89.348-72.43 161.778-161.778 161.778h-388.65L64 569.035V225.778C64 136.43 136.43 64 225.778 64z" fill="#FFE97D" p-id="3607"></path><path d="M423.497 834.86h374.725c75.602 0 136.89-61.288 136.89-136.89V225.778c0-75.602-61.288-136.89-136.89-136.89H225.778c-75.602 0-136.89 61.288-136.89 136.89v329.778H261.72c89.347 0 161.778 72.43 161.778 161.777V834.86zM225.777 64h572.445C887.57 64 960 136.43 960 225.778V697.97c0 89.348-72.43 161.778-161.778 161.778h-388.65L64 569.035V225.778C64 136.43 136.43 64 225.778 64z" fill="#834038" p-id="3608"></path></svg>