<?xml version="1.0" standalone="no"?><!DOCTYPE svg PUBLIC "-//W3C//DTD SVG 1.1//EN" "http://www.w3.org/Graphics/SVG/1.1/DTD/svg11.dtd"><svg t="1642606884771" class="icon" viewBox="0 0 1024 1024" version="1.1" xmlns="http://www.w3.org/2000/svg" p-id="6693" xmlns:xlink="http://www.w3.org/1999/xlink" width="200" height="200"><defs><style type="text/css"></style></defs><path d="M737.536 493.76c-2.112-1.6-11.264-9.12-9.12-30.016 3.328-30.016 4.864-79.904 4.864-82.016v-0.544c0-142.592-115.84-258.4-258.464-258.4-105.568 0-202.112 65.92-240.704 164.576-4.288 11.776-8 25.184-11.264 37.568-1.6 6.4-3.744 13.92-4.8 17.152a23.296 23.296 0 0 0 13.376 30.528 23.264 23.264 0 0 0 30.56-13.376c2.176-5.408 4.256-12.832 6.464-22.528 2.656-10.752 5.856-23.008 9.088-32.224 32.192-80.384 111.52-134.528 197.856-134.528 116.32 0 211.2 94.912 211.2 211.232 0 4.8-1.536 50.944-4.864 78.272-3.488 34.528 9.952 56.768 24.096 69.088 15.36-6.304 31.424-11.328 48.032-14.848a23.488 23.488 0 0 0-16.32-19.936z m-84.128-52.032c1.056-14.496 2.624-30.56 2.112-61.12-1.632-99.232-82.048-179.616-179.648-179.616-89.536 0-159.232 60.608-177.952 154.976-11.84 55.232-41.312 57.344-68.128 54.688-12.832-1.056-24.64 8-25.728 20.896-1.056 12.832 8.032 24.64 20.896 25.728 80.448 8 108.832-46.112 117.984-92.768 14.464-72.384 64.864-117.408 131.872-117.408 72.448 0 131.904 60.032 133.056 133.504 0.512 28.416-1.152 42.88-2.208 56.256-1.088 10.784-2.144 22.048-2.144 38.624-0.448 44.32 13.056 74.24 31.328 95.008a281.664 281.664 0 0 1 39.232-26.592c-14.304-14.016-23.328-34.56-22.784-67.328-0.032-14.464 1.056-24.64 2.112-34.848z m-96.512 139.392a23.648 23.648 0 0 0-2.112 33.248c6.4 7.456 13.728 14.4 21.344 20.992 8.672-13.184 18.528-25.504 29.216-37.024a169.28 169.28 0 0 1-15.232-15.04 23.744 23.744 0 0 0-33.216-2.176z m293.792-543.648h-84.128a9.6 9.6 0 0 0-9.728 9.664v37.504a9.6 9.6 0 0 0 9.728 9.632h84.128c20.384 0 37.504 17.184 37.504 37.536V219.2c0 5.376 4.32 9.664 9.728 9.664h37.504a9.664 9.664 0 0 0 9.728-9.664V131.296c-0.032-51.424-42.432-93.824-94.464-93.824zM185.312 921.12h-85.76a37.984 37.984 0 0 1-37.504-37.568v-83.104a9.6 9.6 0 0 0-9.696-9.696H14.816a9.6 9.6 0 0 0-9.664 9.696v82.528a94.304 94.304 0 0 0 93.856 93.824h85.824a9.6 9.6 0 0 0 9.632-9.632V929.6c-0.032-4.8-4.352-8.48-9.152-8.48z m322.752-134.112c5.632 0 13.312 2.144 21.664 5.12l-0.064-1.568c0-16.064 1.664-31.712 4.224-47.04a99.712 99.712 0 0 0-25.824-4.224c-18.24 0-48.8 8.608-97.568 23.04-35.424 10.208-75.072 21.984-104.064 26.784a23.744 23.744 0 0 0-19.264 27.392 23.712 23.712 0 0 0 27.328 19.264c31.616-5.28 72.896-17.12 109.344-27.904 33.824-9.536 72.448-20.864 84.224-20.864z m-10.72 33.28c-13.376 0-32.16 4.256-62.24 11.808-21.92 5.344-46.624 11.232-64.32 13.344a23.616 23.616 0 0 0-20.352 26.304c1.6 12.832 13.376 22.016 26.24 20.352 20.896-2.72 46.656-8.544 69.696-13.984 20.384-4.8 42.912-10.144 51.488-10.144 16.992 0 31.456 5.472 46.368 11.872a281.76 281.76 0 0 1-12.224-54.432 125.664 125.664 0 0 0-34.656-5.12z m-65.92-143.2a1496.384 1496.384 0 0 1-169.984 45.568 23.456 23.456 0 0 0-18.24 27.904c2.688 12.832 15.04 20.928 27.904 18.272 77.792-16.128 134.048-33.856 174.784-46.688 32.16-10.176 55.744-17.696 69.696-17.696 7.84 0 16.32 2.56 25.6 6.528a279.36 279.36 0 0 1 16.928-43.52c-13.952-6.016-27.808-10.176-43.072-10.176-21.44 0-46.112 8.032-83.616 19.808z m-131.36 2.176c107.2-26.304 269.696-65.984 277.248-298.656a96 96 0 0 0-27.904-71.264 103.744 103.744 0 0 0-149.088 0.992c-18.272 19.84-23.584 46.144-26.816 64.928-15.008 78.208-64.864 116.32-153.888 117.376a22.976 22.976 0 0 0-23.04 23.584c0 12.864 10.72 23.616 23.584 23.008 109.952-0.96 180.672-56.224 199.424-155.456 3.264-18.208 6.976-32.672 15.04-41.792 10.72-11.296 24.64-17.728 40.768-17.728 14.976 0 30.016 6.432 40.192 17.216 9.632 10.112 15.04 23.008 14.464 36.96-6.4 197.312-136.704 228.96-241.248 254.656a819.2 819.2 0 0 0-55.264 15.008 23.52 23.52 0 0 0-14.464 30.048 23.68 23.68 0 0 0 22.496 16.032c2.688 0 4.832-0.544 7.552-1.056 13.952-4.736 32.16-9.056 50.944-13.856zM185.312 37.472h-85.76A94.304 94.304 0 0 0 5.696 131.296v87.424a9.6 9.6 0 0 0 9.696 9.632h37.536a9.6 9.6 0 0 0 9.6-9.632V131.296c0-20.352 17.184-37.504 37.536-37.504h85.792a9.632 9.632 0 0 0 9.664-9.664V46.56c-1.088-4.8-5.408-9.088-10.208-9.088zM233.056 617.6c4.832-1.088 9.632-2.112 14.464-2.624 91.136-18.272 243.936-49.376 251.456-234.368a23.872 23.872 0 0 0-22.496-24.672 23.808 23.808 0 0 0-24.64 22.528c-5.952 147.968-126.048 172.064-213.952 189.824-4.832 0.992-10.208 2.112-14.464 3.168a23.424 23.424 0 0 0-18.24 27.872 23.424 23.424 0 0 0 23.04 18.784c1.568 0 3.168-0.512 4.832-0.512z" p-id="6694" fill="#bfbfbf"></path><path d="M1012.032 763.232c-1.216-15.424-4.096-16.8-19.264-15.552-16.832 1.312-31.04-7.072-36.896-21.728-5.92-14.944-1.536-30.432 11.52-41.184 8.8-7.232 9.984-13.088 1.888-21.6-12-12.736-24.608-24.96-37.728-36.672-10.144-8.992-14.88-7.808-23.456 3.04a34.592 34.592 0 0 1-42.752 9.952c-14.144-6.624-20.832-18.816-19.808-36.192 0.768-11.936-2.72-16.032-14.592-16.96-9.28-0.768-18.496-1.184-27.232-1.824-9.12 0.992-17.696 1.728-26.112 2.848-11.776 1.632-14.4 5.056-13.312 17.184 1.536 18.336-6.048 32.192-21.344 38.432-14.752 6.144-30.016 1.76-41.696-11.936-6.944-8.16-12.896-9.312-20.48-2.112-12.928 11.936-25.216 24.416-36.992 37.472-9.92 11.264-8.8 15.04 2.72 24.608 10.912 9.152 15.584 20.768 12.544 34.944-3.04 14.08-12.128 23.456-26.336 26.912-5.248 1.152-10.944 0.384-16.512 0.384-7.456 0-12.192 3.264-13.152 10.656a193.856 193.856 0 0 0 1.056 61.952c1.248 6.848 5.536 9.856 13.632 9.408 4.224-0.256 8.576-1.312 12.704-0.832 14.848 1.28 26.912 11.712 30.656 25.6 3.936 13.536-0.8 27.712-12.704 37.28-9.824 7.84-11.104 13.408-2.4 22.496 11.776 12.576 24.096 24.8 37.152 36.224 11.008 9.76 15.2 8.576 24.416-3.136 6.4-8.384 16.48-13.728 27.744-13.728 8.832 0 16.896 3.328 23.136 8.672 10.336 8.864 13.088 20.096 11.68 33.216-0.928 9.632 2.624 15.264 11.008 15.328 19.04 0.48 38.144 0.576 57.088-0.672 12.384-0.672 14.816-5.088 13.44-17.568-2.048-18.048 5.568-32.32 20.736-38.752 15.168-6.4 30.88-2.048 42.208 12 6.944 8.64 13.056 9.888 20.896 2.336 13.056-12.448 25.792-25.312 37.728-38.784 8.736-9.792 7.488-15.136-2.976-23.008a34.4 34.4 0 0 1-14.4-26.784c-1.184-21.76 16.96-38.624 39.488-36.416 11.52 1.12 17.216-2.144 17.408-12.192a498.304 498.304 0 0 0-0.832-54.944l0.128 1.632z m-204.608 117.152c-49.504-0.544-89.248-40.8-88.576-89.824 0.576-48.352 40.576-88.128 88.224-87.904 49.28 0.16 89.984 40.672 89.472 89.248-0.48 49.152-40.672 89.056-89.12 88.48z" p-id="6695" fill="#bfbfbf"></path></svg>