<?xml version="1.0" standalone="no"?><!DOCTYPE svg PUBLIC "-//W3C//DTD SVG 1.1//EN" "http://www.w3.org/Graphics/SVG/1.1/DTD/svg11.dtd"><svg t="1642606951800" class="icon" viewBox="0 0 1024 1024" version="1.1" xmlns="http://www.w3.org/2000/svg" p-id="7635" xmlns:xlink="http://www.w3.org/1999/xlink" width="200" height="200"><defs><style type="text/css"></style></defs><path d="M922.88 951.04H205.1584c-72.9088 0-132.1984-59.2896-132.1984-132.1984V101.12c0-16.9472 13.7728-30.72 30.72-30.72s30.72 13.7728 30.72 30.72v717.7216c0 39.0144 31.744 70.7584 70.7584 70.7584h717.7216c16.9472 0 30.72 13.7728 30.72 30.72s-13.7728 30.72-30.72 30.72z" fill="#bfbfbf" p-id="7636"></path><path d="M288 848.64c-53.6576 0-97.28-43.6224-97.28-97.28v-225.28c0-53.6576 43.6224-97.28 97.28-97.28s97.28 43.6224 97.28 97.28v225.28c0 53.6576-43.6736 97.28-97.28 97.28z m0-358.4c-19.7632 0-35.84 16.0768-35.84 35.84v225.28c0 19.7632 16.0768 35.84 35.84 35.84s35.84-16.0768 35.84-35.84v-225.28c0-19.7632-16.0768-35.84-35.84-35.84zM554.24 848.64c-53.6576 0-97.28-43.6224-97.28-97.28v-583.68c0-53.6576 43.6224-97.28 97.28-97.28s97.28 43.6224 97.28 97.28v583.68c0 53.6576-43.6736 97.28-97.28 97.28z m0-716.8c-19.7632 0-35.84 16.0768-35.84 35.84v583.68c0 19.7632 16.0768 35.84 35.84 35.84s35.84-16.0768 35.84-35.84v-583.68c0-19.7632-16.0768-35.84-35.84-35.84zM820.48 848.64c-53.6576 0-97.28-43.6224-97.28-97.28v-491.52c0-53.6576 43.6224-97.28 97.28-97.28s97.28 43.6224 97.28 97.28v491.52c0 53.6576-43.6736 97.28-97.28 97.28z m0-624.64c-19.7632 0-35.84 16.0768-35.84 35.84v491.52c0 19.7632 16.0768 35.84 35.84 35.84s35.84-16.0768 35.84-35.84v-491.52c0-19.7632-16.0768-35.84-35.84-35.84z" fill="#bfbfbf" p-id="7637"></path></svg>