<?xml version="1.0" standalone="no"?><!DOCTYPE svg PUBLIC "-//W3C//DTD SVG 1.1//EN" "http://www.w3.org/Graphics/SVG/1.1/DTD/svg11.dtd"><svg t="1642606661428" class="icon" viewBox="0 0 1024 1024" version="1.1" xmlns="http://www.w3.org/2000/svg" p-id="2959" xmlns:xlink="http://www.w3.org/1999/xlink" width="200" height="200"><defs><style type="text/css"></style></defs><path d="M925.4 387.6v455.5h-0.1c0 45.7-37 82.7-82.7 82.7H180.2c-45.7 0-82.7-37-82.7-82.7V387.6h827.9zM658.1 523.5l-189.2 177-105.1-98.3c-11.9-10.9-30.1-10.9-42 0-5.6 5-8.7 12.2-8.7 19.6 0 7.5 3.2 14.6 8.7 19.6l117.4 109.8c16.4 15.3 43.1 15.3 59.4 0L700 562.7c5.6-5 8.7-12.1 8.7-19.6 0-7.5-3.2-14.6-8.7-19.6-11.8-10.9-30.1-10.9-41.9 0zM221.6 180.8c-0.6 30 15 57.9 40.9 73 25.8 15.2 57.9 15.2 83.7 0 25.8-15.2 41.5-43.1 40.9-73h248.3c0 45.7 37.1 82.7 82.7 82.7 45.7 0 82.9-37 83-82.7h41.4c45.7 0 82.7 37.1 82.7 82.7v82.7H97.5v-82.7c0-45.7 37-82.7 82.7-82.7h41.4z m496.7-82.9c22.8 0 41.4 18.6 41.4 41.4v41.3c0 14.8-7.9 28.4-20.7 35.8-12.8 7.4-28.6 7.4-41.4 0-12.8-7.4-20.7-21-20.7-35.8v-41.3c0.1-22.9 18.7-41.3 41.4-41.4z m-414.1 0c22.9 0 41.4 18.6 41.4 41.4v41.3c0 14.8-7.9 28.4-20.7 35.8-12.8 7.4-28.6 7.4-41.4 0-12.8-7.4-20.7-21-20.7-35.8v-41.3c0.1-22.9 18.7-41.4 41.4-41.4z m0 0" p-id="2960" fill="#bfbfbf"></path></svg>