<?xml version="1.0" standalone="no"?><!DOCTYPE svg PUBLIC "-//W3C//DTD SVG 1.1//EN" "http://www.w3.org/Graphics/SVG/1.1/DTD/svg11.dtd"><svg class="icon" width="200px" height="200.00px" viewBox="0 0 1024 1024" version="1.1" xmlns="http://www.w3.org/2000/svg"><path d="M620.9 67.2H236.5c-30.3 0-54.9 25-54.9 55.9v782.7c0 30.9 24.6 55.9 54.9 55.9h549c30.3 0 54.9-25 54.9-55.9v-615L620.9 67.2z" fill="#FF7357" /><path d="M802 925.9H220.1V109.7h379.6v218.9H802z" fill="#FFFFFF" /><path d="M802 922.6H220.1V106.4h379.6v218.8H802z" fill="#FF917B" /><path d="M348.9 650.4c35.1 0 52.6 14.9 52.6 44.8 0 30.1-17.8 45.2-53.1 45.2h-38.2v57.4h-22.5V650.4h61.2z m-38.6 70.8H347c11.1 0 19.2-2.1 24.4-6.2 5-4.1 7.6-10.7 7.6-19.8 0-9.1-2.7-15.7-7.8-19.4-5.2-4.1-13.2-6.2-24.2-6.2h-36.7v51.6zM483.5 650.4c35.1 0 52.6 14.9 52.6 44.8 0 30.1-17.8 45.2-53.1 45.2h-38.2v57.4h-22.5V650.4h61.2z m-38.6 70.8h36.7c11.1 0 19.2-2.1 24.4-6.2 5-4.1 7.6-10.7 7.6-19.8 0-9.1-2.7-15.7-7.8-19.4-5.2-4.1-13.2-6.2-24.2-6.2h-36.7v51.6zM666.4 650.4v19.2h-49.1v128.2H595V669.6h-49.3v-19.2h120.7z" fill="#FFFFFF" /></svg>